<svg xmlns="http://www.w3.org/2000/svg" viewBox="0 0 1550 344" fill="#343ede">
  <style>.w{fill:#fcfcfc}.t{fill:#c3c5fe}.b{fill:#22254c}</style>
  <rect x="0.7" y="0.4" width="342.3" height="342.3" rx="151.4"/>
  <path class="w"
        d="M194.3 99.4V145H181.1c-22.4 0-34.3 11.1-34.3 37.6v60.8H95.9V100.7h49.8V129c5-20.2 17.7-30.4 38.4-30.4A57 57 0 0 1 194.3 99.4Z"/>
  <path class="t" d="M190.5 188.7h56.4v54.7H190.5Z"/>
  <path class="b"
        d="M557 98.2v46.2H543.6c-22.7 0-34.7 11.2-34.7 38.1V244H457.3V99.6h50.4v28.6c5-20.4 17.9-30.8 38.9-30.8A57.5 57.5 0 0 1 557 98.2ZM724.4 186.6H618.6C622 203.2 633.2 211 647.4 211c12 0 20.5-4.2 25.5-12.6h48.2c-8.1 31.6-38.6 49-73.6 49-46.7 0-77.8-30-77.8-75.6s30.5-75.6 77.3-75.6c45.9 0 77.6 30 77.6 81.2ZM618.6 156.1h56.3c-3.4-15.7-13.7-23.5-28.6-23.5C632.6 132.6 622 139.3 618.6 156.1ZM806.2 136v57.7c0 12 6.2 12.9 16.5 12.9h10.6V244a186.6 186.6 0 0 1-21.8 1.4c-40.9 0-56.8-13.4-56.8-45.6V136H734.2V99.6h20.4V55.9h51.5V99.6h27.2V136ZM955.4 98.2v46.2H942c-22.7 0-34.7 11.2-34.7 38.1V244H855.7V99.6h50.4v28.6c5-20.4 17.9-30.8 38.9-30.8A57.5 57.5 0 0 1 955.4 98.2ZM1122.9 186.6H1017c3.4 16.5 14.6 24.4 28.8 24.4 12 0 20.4-4.2 25.5-12.6h48.2c-8.1 31.6-38.6 49-73.6 49-46.8 0-77.8-30-77.8-75.6s30.5-75.6 77.3-75.6c45.9 0 77.6 30 77.6 81.2ZM1017 156.1h56.3c-3.4-15.7-13.7-23.5-28.6-23.5C1031 132.6 1020.4 139.3 1017 156.1ZM1295.9 186.6H1190.1c3.4 16.5 14.6 24.4 28.8 24.4 12 0 20.4-4.2 25.5-12.6h48.2c-8.1 31.6-38.6 49-73.6 49-46.8 0-77.8-30-77.8-75.6s30.5-75.6 77.3-75.6c45.9 0 77.6 30 77.6 81.2Zm-105.8-30.5h56.3c-3.4-15.7-13.7-23.5-28.6-23.5C1204.1 132.6 1193.4 139.3 1190.1 156.1ZM1472.9 171.8c0 45.6-22.7 75.6-61.6 75.6-19.6 0-32.8-8.1-41.4-21.3V244h-50.1V44.7h51.5v70.6c8.7-11.8 21.6-19 40-19C1450.2 96.2 1472.9 126.2 1472.9 171.8Zm-51.8-1.1c0-24.6-9-34.2-25.2-34.2s-25.2 10.6-25.2 35.3 9 35.3 25.2 35.3S1421.1 195.3 1421.1 170.7Z"/>
  <path d="M1489.7 188.6h57.1V244h-57.1Z"/>
</svg>
